<svg xmlns="http://www.w3.org/2000/svg" xmlns:xlink="http://www.w3.org/1999/xlink" viewBox="0,0,256,256" width="48px" height="48px"><g fill="none" fill-rule="nonzero" stroke="none" stroke-width="none" stroke-linecap="none" stroke-linejoin="none" stroke-miterlimit="10" stroke-dasharray="" stroke-dashoffset="0" font-family="none" font-weight="none" font-size="none" text-anchor="none" style="mix-blend-mode: normal"><g transform="scale(5.33333,5.33333)"><path d="M40.881,11.129h-25.762c-1.127,0 -2.015,0.961 -1.926,2.084l2.21,27.93c0.06,0.758 0.559,1.41 1.274,1.666l10.67,3.824c0.421,0.151 0.882,0.151 1.303,0l10.67,-3.824c0.715,-0.256 1.214,-0.908 1.274,-1.666l2.21,-27.93c0.091,-1.123 -0.796,-2.084 -1.923,-2.084z" fill="#eca155" stroke="none" stroke-width="1" stroke-linecap="butt" stroke-linejoin="miter"></path><path d="M37.787,28.147l1.542,-19.489c0.092,-1.163 -0.827,-2.158 -1.994,-2.158h-26.67c-1.167,0 -2.086,0.995 -1.994,2.158l0.564,7.133" fill="none" stroke="#18193f" stroke-width="3" stroke-linecap="round" stroke-linejoin="round"></path><path d="M9.759,22.415l1.2,15.159c0.062,0.784 0.578,1.46 1.319,1.725l11.047,3.959c0.436,0.156 0.913,0.156 1.349,0l11.047,-3.959c0.741,-0.265 1.257,-0.941 1.319,-1.725l0.281,-3.551" fill="none" stroke="#18193f" stroke-width="3" stroke-linecap="round" stroke-linejoin="round"></path><path d="M31.371,16h-13.151l0.44,6h12.783c0.581,0 1.04,0.494 0.997,1.074l-0.731,9.874c-0.03,0.406 -0.304,0.754 -0.692,0.878l-6.717,2.155c-0.202,0.065 -0.418,0.064 -0.619,-0.003l-6.527,-2.158c-0.384,-0.127 -0.653,-0.472 -0.683,-0.875l-0.25,-3.333c-0.065,-0.87 0.623,-1.612 1.496,-1.612v0c0.786,0 1.438,0.606 1.496,1.39l0.148,2l4.65,1.53l4.81,-1.54l0.469,-6.38h-12.482c-0.523,0 -0.958,-0.403 -0.997,-0.925l-0.75,-10c-0.044,-0.58 0.415,-1.075 0.997,-1.075h15.313c0.874,0 1.562,0.744 1.496,1.615v0c-0.061,0.781 -0.712,1.385 -1.496,1.385z" fill="#18193f" stroke="none" stroke-width="1" stroke-linecap="butt" stroke-linejoin="miter"></path></g></g></svg>